<mxfile host="app.diagrams.net" modified="2021-06-24T12:05:27.902Z" agent="5.0 (Windows NT 10.0; Win64; x64) AppleWebKit/537.36 (KHTML, like Gecko) Chrome/91.0.4472.77 Safari/537.36" etag="jbngEPq5-IXXsVO38SRM" version="14.8.0" type="github">
  <diagram id="501Sf3aP--RDM6qiDaYh" name="Page-1">
    <mxGraphModel dx="1038" dy="547" grid="1" gridSize="10" guides="1" tooltips="1" connect="1" arrows="1" fold="1" page="1" pageScale="1" pageWidth="1169" pageHeight="827" math="0" shadow="0">
      <root>
        <mxCell id="0" />
        <mxCell id="1" parent="0" />
        <mxCell id="IUuoTyOH3FLaeKe2KzvL-1" value="" style="rounded=0;whiteSpace=wrap;html=1;sketch=1;" vertex="1" parent="1">
          <mxGeometry x="150" y="290" width="720" height="60" as="geometry" />
        </mxCell>
        <mxCell id="IUuoTyOH3FLaeKe2KzvL-2" value="Partition2" style="text;html=1;strokeColor=none;fillColor=none;align=center;verticalAlign=middle;whiteSpace=wrap;rounded=0;fontFamily=中国式手写风;fontSize=36;fontColor=#FF0000;sketch=1;" vertex="1" parent="1">
          <mxGeometry x="420" y="160" width="200" height="80" as="geometry" />
        </mxCell>
        <mxCell id="IUuoTyOH3FLaeKe2KzvL-3" value="v" style="rounded=0;whiteSpace=wrap;html=1;fontFamily=中国式手写风;fontSize=36;fontColor=#FF0000;fillColor=#FF0000;sketch=1;" vertex="1" parent="1">
          <mxGeometry x="150" y="290" width="50" height="60" as="geometry" />
        </mxCell>
        <mxCell id="IUuoTyOH3FLaeKe2KzvL-4" value="&amp;lt; v" style="rounded=0;whiteSpace=wrap;html=1;fontFamily=中国式手写风;fontSize=36;fontColor=#FF0000;fillColor=#FF8000;sketch=1;" vertex="1" parent="1">
          <mxGeometry x="200" y="290" width="160" height="60" as="geometry" />
        </mxCell>
        <mxCell id="IUuoTyOH3FLaeKe2KzvL-5" value="&amp;gt; v" style="rounded=0;whiteSpace=wrap;html=1;fontFamily=中国式手写风;fontSize=36;fontColor=#FF0000;fillColor=#7F00FF;sketch=1;" vertex="1" parent="1">
          <mxGeometry x="670" y="290" width="200" height="60" as="geometry" />
        </mxCell>
        <mxCell id="IUuoTyOH3FLaeKe2KzvL-6" value="arr[l+1...i-1] &amp;lt; v" style="text;html=1;strokeColor=none;fillColor=none;align=center;verticalAlign=middle;whiteSpace=wrap;rounded=0;fontFamily=中国式手写风;fontSize=30;fontColor=#FF0000;sketch=1;" vertex="1" parent="1">
          <mxGeometry x="140" y="220" width="280" height="70" as="geometry" />
        </mxCell>
        <mxCell id="IUuoTyOH3FLaeKe2KzvL-7" value="arr[j...r] &amp;gt; v" style="text;html=1;strokeColor=none;fillColor=none;align=center;verticalAlign=middle;whiteSpace=wrap;rounded=0;fontFamily=中国式手写风;fontSize=30;fontColor=#FF0000;sketch=1;" vertex="1" parent="1">
          <mxGeometry x="620" y="220" width="280" height="70" as="geometry" />
        </mxCell>
        <mxCell id="IUuoTyOH3FLaeKe2KzvL-8" value="&lt;font style=&quot;font-size: 36px&quot;&gt;&amp;lt; v&lt;/font&gt;" style="rounded=0;whiteSpace=wrap;html=1;fillColor=#199C8E;sketch=1;fontFamily=中国式手写风;fontSize=24;fontColor=#FF0000;" vertex="1" parent="1">
          <mxGeometry x="360" y="290" width="60" height="60" as="geometry" />
        </mxCell>
        <mxCell id="IUuoTyOH3FLaeKe2KzvL-9" value="&lt;font style=&quot;font-size: 36px&quot;&gt;&amp;gt; v&lt;/font&gt;" style="rounded=0;whiteSpace=wrap;html=1;fillColor=#199C8E;sketch=1;fontSize=24;fontFamily=中国式手写风;fontColor=#FF0000;" vertex="1" parent="1">
          <mxGeometry x="610" y="290" width="60" height="60" as="geometry" />
        </mxCell>
        <mxCell id="IUuoTyOH3FLaeKe2KzvL-10" value="" style="rounded=0;whiteSpace=wrap;html=1;sketch=1;" vertex="1" parent="1">
          <mxGeometry x="150" y="580" width="720" height="60" as="geometry" />
        </mxCell>
        <mxCell id="IUuoTyOH3FLaeKe2KzvL-11" value="v" style="rounded=0;whiteSpace=wrap;html=1;fontFamily=中国式手写风;fontSize=36;fontColor=#FF0000;fillColor=#FF0000;sketch=1;" vertex="1" parent="1">
          <mxGeometry x="150" y="580" width="50" height="60" as="geometry" />
        </mxCell>
        <mxCell id="IUuoTyOH3FLaeKe2KzvL-12" value="&amp;lt;= v" style="rounded=0;whiteSpace=wrap;html=1;fontFamily=中国式手写风;fontSize=36;fontColor=#FF0000;fillColor=#FF8000;sketch=1;" vertex="1" parent="1">
          <mxGeometry x="200" y="580" width="260" height="60" as="geometry" />
        </mxCell>
        <mxCell id="IUuoTyOH3FLaeKe2KzvL-13" value="&amp;gt;= v" style="rounded=0;whiteSpace=wrap;html=1;fontFamily=中国式手写风;fontSize=36;fontColor=#FF0000;fillColor=#7F00FF;sketch=1;" vertex="1" parent="1">
          <mxGeometry x="570" y="580" width="300" height="60" as="geometry" />
        </mxCell>
        <mxCell id="IUuoTyOH3FLaeKe2KzvL-14" value="arr[l+1...i-1] &amp;lt; =v" style="text;html=1;strokeColor=none;fillColor=none;align=center;verticalAlign=middle;whiteSpace=wrap;rounded=0;fontFamily=中国式手写风;fontSize=30;fontColor=#FF0000;sketch=1;" vertex="1" parent="1">
          <mxGeometry x="140" y="510" width="280" height="70" as="geometry" />
        </mxCell>
        <mxCell id="IUuoTyOH3FLaeKe2KzvL-15" value="arr[j...r] &amp;gt;= v" style="text;html=1;strokeColor=none;fillColor=none;align=center;verticalAlign=middle;whiteSpace=wrap;rounded=0;fontFamily=中国式手写风;fontSize=30;fontColor=#FF0000;sketch=1;" vertex="1" parent="1">
          <mxGeometry x="620" y="510" width="280" height="70" as="geometry" />
        </mxCell>
        <mxCell id="IUuoTyOH3FLaeKe2KzvL-18" value="&lt;font style=&quot;font-size: 36px&quot;&gt;e&lt;/font&gt;" style="rounded=0;whiteSpace=wrap;html=1;sketch=1;fontFamily=中国式手写风;fontSize=24;fontColor=#FF0000;fillColor=#7F00FF;" vertex="1" parent="1">
          <mxGeometry x="420" y="290" width="40" height="60" as="geometry" />
        </mxCell>
        <mxCell id="IUuoTyOH3FLaeKe2KzvL-19" value="e" style="rounded=0;whiteSpace=wrap;html=1;fontFamily=中国式手写风;fontSize=36;fontColor=#FF0000;fillColor=#FF8000;sketch=1;" vertex="1" parent="1">
          <mxGeometry x="570" y="290" width="40" height="60" as="geometry" />
        </mxCell>
        <mxCell id="IUuoTyOH3FLaeKe2KzvL-20" value="" style="triangle;whiteSpace=wrap;html=1;sketch=1;fontFamily=中国式手写风;fontSize=24;rotation=-90;fillColor=#f8cecc;strokeColor=#b85450;" vertex="1" parent="1">
          <mxGeometry x="427.5" y="367.5" width="25" height="30" as="geometry" />
        </mxCell>
        <mxCell id="IUuoTyOH3FLaeKe2KzvL-21" value="" style="triangle;whiteSpace=wrap;html=1;sketch=1;fontFamily=中国式手写风;fontSize=24;rotation=-90;fillColor=#f8cecc;strokeColor=#b85450;" vertex="1" parent="1">
          <mxGeometry x="577.5" y="367.5" width="25" height="30" as="geometry" />
        </mxCell>
        <mxCell id="IUuoTyOH3FLaeKe2KzvL-22" value="" style="triangle;whiteSpace=wrap;html=1;sketch=1;fontFamily=中国式手写风;fontSize=24;rotation=-90;fillColor=#f8cecc;strokeColor=#b85450;" vertex="1" parent="1">
          <mxGeometry x="160" y="367.5" width="25" height="30" as="geometry" />
        </mxCell>
        <mxCell id="IUuoTyOH3FLaeKe2KzvL-23" value="" style="triangle;whiteSpace=wrap;html=1;sketch=1;fontFamily=中国式手写风;fontSize=24;rotation=-90;fillColor=#f8cecc;strokeColor=#b85450;" vertex="1" parent="1">
          <mxGeometry x="840" y="367.5" width="25" height="30" as="geometry" />
        </mxCell>
        <mxCell id="IUuoTyOH3FLaeKe2KzvL-24" value="l" style="text;html=1;strokeColor=none;fillColor=none;align=center;verticalAlign=middle;whiteSpace=wrap;rounded=0;sketch=1;fontFamily=中国式手写风;fontSize=36;fontColor=#FF0000;" vertex="1" parent="1">
          <mxGeometry x="152.5" y="420" width="40" height="20" as="geometry" />
        </mxCell>
        <mxCell id="IUuoTyOH3FLaeKe2KzvL-25" value="i" style="text;html=1;strokeColor=none;fillColor=none;align=center;verticalAlign=middle;whiteSpace=wrap;rounded=0;sketch=1;fontFamily=中国式手写风;fontSize=36;fontColor=#FF0000;" vertex="1" parent="1">
          <mxGeometry x="420" y="420" width="40" height="20" as="geometry" />
        </mxCell>
        <mxCell id="IUuoTyOH3FLaeKe2KzvL-26" value="j" style="text;html=1;strokeColor=none;fillColor=none;align=center;verticalAlign=middle;whiteSpace=wrap;rounded=0;sketch=1;fontFamily=中国式手写风;fontSize=36;fontColor=#FF0000;" vertex="1" parent="1">
          <mxGeometry x="570" y="420" width="40" height="20" as="geometry" />
        </mxCell>
        <mxCell id="IUuoTyOH3FLaeKe2KzvL-27" value="r" style="text;html=1;strokeColor=none;fillColor=none;align=center;verticalAlign=middle;whiteSpace=wrap;rounded=0;sketch=1;fontFamily=中国式手写风;fontSize=36;fontColor=#FF0000;" vertex="1" parent="1">
          <mxGeometry x="832.5" y="420" width="40" height="20" as="geometry" />
        </mxCell>
        <mxCell id="IUuoTyOH3FLaeKe2KzvL-28" value="" style="triangle;whiteSpace=wrap;html=1;sketch=1;fontFamily=中国式手写风;fontSize=24;rotation=-90;fillColor=#f8cecc;strokeColor=#b85450;" vertex="1" parent="1">
          <mxGeometry x="467.5" y="660" width="25" height="30" as="geometry" />
        </mxCell>
        <mxCell id="IUuoTyOH3FLaeKe2KzvL-29" value="" style="triangle;whiteSpace=wrap;html=1;sketch=1;fontFamily=中国式手写风;fontSize=24;rotation=-90;fillColor=#f8cecc;strokeColor=#b85450;" vertex="1" parent="1">
          <mxGeometry x="537.5" y="660" width="25" height="30" as="geometry" />
        </mxCell>
        <mxCell id="IUuoTyOH3FLaeKe2KzvL-30" value="" style="triangle;whiteSpace=wrap;html=1;sketch=1;fontFamily=中国式手写风;fontSize=24;rotation=-90;fillColor=#f8cecc;strokeColor=#b85450;" vertex="1" parent="1">
          <mxGeometry x="157.5" y="660" width="25" height="30" as="geometry" />
        </mxCell>
        <mxCell id="IUuoTyOH3FLaeKe2KzvL-31" value="" style="triangle;whiteSpace=wrap;html=1;sketch=1;fontFamily=中国式手写风;fontSize=24;rotation=-90;fillColor=#f8cecc;strokeColor=#b85450;" vertex="1" parent="1">
          <mxGeometry x="837.5" y="660" width="25" height="30" as="geometry" />
        </mxCell>
        <mxCell id="IUuoTyOH3FLaeKe2KzvL-32" value="l" style="text;html=1;strokeColor=none;fillColor=none;align=center;verticalAlign=middle;whiteSpace=wrap;rounded=0;sketch=1;fontFamily=中国式手写风;fontSize=36;fontColor=#FF0000;" vertex="1" parent="1">
          <mxGeometry x="150" y="712.5" width="40" height="20" as="geometry" />
        </mxCell>
        <mxCell id="IUuoTyOH3FLaeKe2KzvL-33" value="i" style="text;html=1;strokeColor=none;fillColor=none;align=center;verticalAlign=middle;whiteSpace=wrap;rounded=0;sketch=1;fontFamily=中国式手写风;fontSize=36;fontColor=#FF0000;" vertex="1" parent="1">
          <mxGeometry x="460" y="712.5" width="40" height="20" as="geometry" />
        </mxCell>
        <mxCell id="IUuoTyOH3FLaeKe2KzvL-34" value="j" style="text;html=1;strokeColor=none;fillColor=none;align=center;verticalAlign=middle;whiteSpace=wrap;rounded=0;sketch=1;fontFamily=中国式手写风;fontSize=36;fontColor=#FF0000;" vertex="1" parent="1">
          <mxGeometry x="530" y="712.5" width="40" height="20" as="geometry" />
        </mxCell>
        <mxCell id="IUuoTyOH3FLaeKe2KzvL-35" value="r" style="text;html=1;strokeColor=none;fillColor=none;align=center;verticalAlign=middle;whiteSpace=wrap;rounded=0;sketch=1;fontFamily=中国式手写风;fontSize=36;fontColor=#FF0000;" vertex="1" parent="1">
          <mxGeometry x="830" y="712.5" width="40" height="20" as="geometry" />
        </mxCell>
      </root>
    </mxGraphModel>
  </diagram>
</mxfile>
